<?xml version="1.0" encoding="UTF-8"?>
<svg width="1697px" height="325px" viewBox="0 0 1697 325" version="1.1" xmlns="http://www.w3.org/2000/svg" xmlns:xlink="http://www.w3.org/1999/xlink">
    <!-- Generator: Sketch 47.1 (45422) - http://www.bohemiancoding.com/sketch -->
    <title>Growth_-logo-black</title>
    <desc>Created with Sketch.</desc>
    <defs></defs>
    <g id="Page-1" stroke="none" stroke-width="1" fill="none" fill-rule="evenodd">
        <g id="Growth_-logo-black" fill-rule="nonzero" fill="#000000">
            <g id="Group" transform="translate(848.500000, 162.600000) scale(-1, 1) rotate(-180.000000) translate(-848.500000, -162.600000) translate(0.000000, 0.200000)">
                <path d="M370.7,323.9 C365.5,322.7 362.1,320.8 358.2,317 C348.5,307.8 348.5,290.3 358.2,280.9 C363.7,275.6 369.2,273.7 380.9,273.2 L391.2,272.7 L353.4,234.9 L315.5,197 L217.4,197 C130.2,197 118.8,196.8 115.4,195.4 C112.6,194.3 96.5,178.9 58.1,140.7 C0.5,83.2 0,82.7 0,72.4 C0,60.9 6.1,52 16.8,47.9 C23.7,45.4 30.5,45.7 37.1,49 C40.1,50.5 56.7,66.3 89,98.6 L136.5,146 L235,146.2 L333.5,146.5 L338,148.9 C341,150.4 357.2,165.8 385.3,193.8 L428,236.4 L428,226.5 C428.1,215.3 429.3,211 433.9,205.2 C442.6,194.2 461.2,193.2 471.1,203.1 C479.1,211.1 479,209.9 479,259.6 C479,308.9 478.9,309.5 472.2,316.5 C470.2,318.6 466.5,321.3 464,322.4 C459.7,324.4 457.8,324.5 417,324.7 C393.6,324.8 372.8,324.4 370.7,323.9 Z" id="Shape"></path>
                <path d="M1287.1,297.1 C1285.9,295 1285.5,126.4 1286.6,122.3 C1287.2,120.1 1287.6,120 1299.1,120 L1311,120 L1311,154.6 C1311,193.3 1311.6,198.7 1317.4,208.3 C1323.5,218.4 1330,222.9 1342.5,225.7 C1349.6,227.2 1350.5,227.2 1358.4,225.6 C1369.1,223.3 1375.1,219 1379.5,210.5 L1382.5,204.6 L1383,162.6 L1383.5,120.5 L1394.9,120.2 C1403.4,120 1406.6,120.3 1407.2,121.2 C1407.6,121.9 1408,140.6 1408,162.8 C1408,207.4 1407.4,213.2 1401.9,224.6 C1398.3,231.9 1390.4,239.9 1383.4,243.4 C1360.3,254.9 1326.1,247.4 1313.9,228.1 L1311,223.6 L1310.8,261.1 L1310.5,298.5 L1299.3,298.8 C1289,299 1288,298.9 1287.1,297.1 Z" id="Shape"></path>
                <path d="M624,289.3 C590.9,282.7 566.1,263.3 555,235 C552,227.6 549,212.2 549,204.7 C549,197.8 551.2,185.2 553.7,177.5 C558.7,162 569.5,147 583,136.6 C612.6,113.9 652.3,112.1 689.3,131.9 C693.1,133.9 697.7,136.9 699.6,138.6 L703,141.8 L703,171.1 C703,187.3 702.6,201.1 702.2,201.8 C701.6,202.7 698.7,203 691.4,202.8 L681.5,202.5 L681,177.7 C680.6,157.2 680.2,152.8 679,151.9 C672.4,147.5 664.2,144.4 652.5,141.9 C638.8,139 633.7,139.4 618.1,144.2 C590.3,152.9 571,182.9 574.9,211.3 C578.6,237.9 594.9,257.1 621,265.7 C627.8,267.9 649.1,268.2 656,266.2 C668.3,262.5 679,257 685.2,251.3 C686.6,249.9 688.5,249 689.3,249.2 C690.8,249.5 703,263.6 703,265 C703,266.3 695.2,272.6 689.1,276.2 C673,285.8 660.4,289.2 641,289.6 C633,289.7 625.4,289.6 624,289.3 Z" id="Shape"></path>
                <path d="M1195,261 L1195,244 L1186,244 L1177,244 L1177,235.5 L1177,227.1 L1185.8,226.8 L1194.5,226.5 L1195,185.5 C1195.4,160 1196,143.3 1196.7,141.4 C1200,132.1 1206.5,125.5 1216,122 C1224.5,118.8 1238.4,119.4 1248.6,123.5 C1252.5,125 1256.7,127.1 1257.9,128.1 L1260.2,130 L1257.5,138.1 C1256,142.5 1254.2,146.4 1253.6,146.6 C1252.9,146.9 1250.1,146.1 1247.5,145 C1240.3,141.9 1231.3,141.3 1226.6,143.5 C1219.5,146.9 1219.5,146.9 1219.5,189 L1219.5,226.5 L1238.8,226.8 L1258,227 L1258,235.5 L1258,244 L1238.5,244 L1219,244 L1219,261 L1219,278 L1207,278 L1195,278 L1195,261 Z" id="Shape"></path>
                <path d="M744.3,248.3 C743.3,247.9 743,234.1 743,183.9 L743,119.9 L754.8,120.2 L766.5,120.5 L767,158 C767.5,189.6 767.8,196.1 769.2,199.6 C775.2,214.8 786.2,223 804.8,226.1 L812,227.3 L812,237.6 C812,247.1 811.8,247.9 809.9,248.5 C806.8,249.5 795.4,247 788.2,243.9 C781.8,241 770.6,231.5 769.5,227.9 C768,223.2 767,226.8 767,236.9 C767,247.3 766.9,247.8 764.8,248.4 C762.1,249.1 746,249.1 744.3,248.3 Z" id="Shape"></path>
                <path d="M874.5,247.6 C865.8,245.8 861.3,244.2 854.1,240.3 C832.4,228.6 820.6,206.2 822.4,180 C823.6,161.9 828.4,150.7 840,139 C848.1,130.8 853.3,127.4 864.4,123.4 C874.2,119.8 894.5,118.9 905.3,121.5 C935.7,128.9 954,152.3 954,183.9 C953.9,213.7 940.5,233.6 912.6,244.9 C903.7,248.5 885.6,249.8 874.5,247.6 Z M906.2,224.1 C921.3,217 930,202.2 930,184 C930,171.6 926.1,161.2 918.2,152.8 C912.9,147.1 908.1,144.3 899.5,141.8 C891.9,139.6 885.9,139.6 877.8,141.6 C864.8,144.9 856.9,151.2 851.2,162.8 L847.5,170.5 L847.5,184.5 C847.5,197.8 847.7,198.8 850.4,204.2 C855.8,215.2 863.4,222 874.7,226 C879.4,227.7 882.3,228 890,227.7 C898.2,227.4 900.5,226.9 906.2,224.1 Z" id="Shape"></path>
                <path d="M960.1,248.1 C958.6,247.1 958.9,246.4 978.5,193.5 C983.8,179.2 989,165 990.1,162 C991.1,159 995.1,148.4 998.8,138.5 L1005.5,120.5 L1017.8,120.2 L1030,119.9 L1031.5,123.2 C1032.3,125 1036.4,136.4 1040.5,148.5 C1044.7,160.6 1048.7,172.1 1049.5,174 C1050.3,175.9 1054,186.4 1057.8,197.3 C1062.7,211.4 1064.9,216.7 1065.5,215.3 C1066.5,212.7 1075.5,187.5 1080.2,174 C1085,160.1 1095.5,130.1 1097.7,124.2 L1099.3,119.9 L1111.8,120.2 L1124.2,120.5 L1125.7,124.5 C1126.5,126.7 1128,130.8 1129.1,133.5 C1130.1,136.3 1134.1,147.3 1138,158 C1145.1,177.5 1148,185.4 1150.5,192 C1159.2,214.6 1170.1,245.4 1169.8,246.8 C1169.5,248.2 1168,248.5 1160,248.8 C1154.8,249 1149.5,248.8 1148.4,248.6 C1146.6,248.1 1143.9,240.8 1129.5,197.5 C1120.2,169.7 1112.4,147 1112,147 C1111.6,147 1103.7,169.7 1094.4,197.4 C1080.4,239.3 1077.2,248 1075.5,248.4 C1072.5,249.2 1054.7,249.1 1053.3,248.2 C1052.7,247.8 1044.7,224.8 1035.5,197.2 C1026.3,169.5 1018.4,147.2 1018,147.7 C1017.2,148.5 1012.8,161.1 993.2,219.2 C985.3,242.6 983.2,248 981.5,248.4 C978.3,249.3 961.6,249 960.1,248.1 Z" id="Shape"></path>
                <path d="M383.5,167 C366.5,149.9 351,134.9 349.3,133.7 L346,131.5 L346,75.8 C346,26.5 346.2,20 347.6,18.6 C348.9,17.2 353.3,17 380.4,17 C403.8,17 412,17.3 413.3,18.3 C414.9,19.4 415,25.7 414.8,108.8 L414.5,198 L383.5,167 Z" id="Shape"></path>
                <path d="M298.5,126 L265.5,125.5 L265.5,72.9 C265.5,30.1 265.8,20 266.9,18.6 C268.1,17.2 271.8,17 300.1,17 C327.6,17 332.1,17.2 333.4,18.6 C334.8,20 335,26.3 335,73.6 C335,123.9 334.9,127 333.3,126.8 C332.3,126.6 316.7,126.3 298.5,126 Z" id="Shape"></path>
                <path d="M123.2,107.7 L105,89.5 L105,55.5 C105,26.3 105.2,21.1 106.6,19.2 C108.1,17 108.2,17 139.9,17 C169.4,17 171.8,17.1 173.3,18.8 C174.8,20.5 175,25.7 175,73.3 L175,126 L158.2,126 L141.5,126 L123.2,107.7 Z" id="Shape"></path>
                <path d="M185,73.7 C185,28 185.2,21.2 186.6,19.2 C188.1,17 188.2,17 219.9,17 C249.4,17 251.8,17.1 253.3,18.8 C254.8,20.5 255,25.7 255,73.3 L255,126 L220,126 L185,126 L185,73.7 Z" id="Shape"></path>
                <path d="M1122,51.5 L1122,18 L1127,18 C1131.9,18 1132,18.1 1132,21 L1132,24 L1136.2,21.3 C1140,18.7 1141.2,18.5 1149.6,18.5 C1158.2,18.5 1159.1,18.7 1163.1,21.5 C1169.5,26 1172.5,32.5 1172.5,41.9 C1172.4,48.4 1172,50.3 1169.5,54.9 C1165.4,62.4 1159,66 1149.8,66 C1142.1,66 1138.6,64.9 1134.8,61.2 L1132,58.6 L1132,71.8 L1132,85 L1127,85 L1122,85 L1122,51.5 Z M1155,55.7 C1164.9,49.1 1164.9,34.9 1154.9,28.2 C1152.1,26.2 1150.6,25.9 1146.1,26.3 C1141.3,26.6 1140.2,27.2 1136.9,30.7 C1132.8,35.1 1131.4,39.8 1132.4,45.5 C1133.2,49.3 1138.1,55.7 1141.4,57 C1145.5,58.7 1151.6,58.1 1155,55.7 Z" id="Shape"></path>
                <path d="M1447,51.5 L1447,18 L1452,18 L1457,18 L1457,30.3 C1457,44 1457.9,48.6 1461.6,53 C1466.7,59 1476.8,58.8 1481.4,52.7 C1483.3,50.1 1483.5,48.2 1483.9,33.9 L1484.2,18 L1488.6,18 L1493,18 L1493,36.3 C1493,53.3 1492.8,54.8 1490.7,58.4 C1487.6,63.9 1483.1,66 1474.7,66 C1467,66 1462.1,64.2 1459,60.2 L1457,57.7 L1457,71.4 L1457,85 L1452,85 L1447,85 L1447,51.5 Z" id="Shape"></path>
                <path d="M549,49.5 L549,18 L554,18 L559,18 L559,28 L559,38 L571.3,38 C581.1,38 584.3,38.4 587.5,39.9 C595.1,43.4 598.8,48.8 599.7,57.5 C600.7,67.2 596.7,74.8 588.6,78.6 C583.9,80.8 582.3,81 566.3,81 L549,81 L549,49.5 Z M583.2,70.6 C590.4,67.2 592.1,56.9 586.4,50.9 C583.2,47.5 577,46 566.5,46 L559,46 L559,59.6 L559,73.3 L569.3,72.8 C576.1,72.5 580.7,71.8 583.2,70.6 Z" id="Shape"></path>
                <polygon id="Shape" points="993 49.5 993 18 998 18 1003 18 1003 31.5 1003 45 1020 45 1037 45 1037 31.5 1037 18 1042.5 18 1048 18 1048 49.5 1048 81 1042.5 81 1037 81 1037 67 1037 53 1020 53 1003 53 1003 67 1003 81 998 81 993 81"></polygon>
                <polygon id="Shape" points="1394 77 1394 73 1404 73 1414 73 1414 45.5 1414 18 1419 18 1424 18 1424 45.5 1424 73 1434 73 1444 73 1444 77 1444 81 1419 81 1394 81"></polygon>
                <path d="M71,55.5 C46.6,31.2 43.6,29.1 31,26.8 C25.4,25.7 25,25.5 25,23 C25,17.1 25.6,17 60.3,17 C91.8,17 91.9,17 93.4,19.2 C94.8,21.1 95,25.7 95,49.7 C95,65.3 94.7,78 94.3,78 C93.8,78 83.4,67.9 71,55.5 Z" id="Shape"></path>
                <path d="M1343,71 L1343,64 L1339.5,64 C1336.3,64 1336,63.8 1336,61 C1336,58.2 1336.3,58 1339.5,58 L1343,58 L1343,43 C1343,26 1344,22.1 1348.9,19.6 C1352.7,17.6 1361,17.5 1365.6,19.5 C1369,20.9 1369,20.9 1367.7,24.2 C1366.7,26.6 1365.8,27.4 1364.4,27.2 C1353.2,25.2 1353.6,24.8 1353.2,43 L1352.9,58 L1360.4,58 L1368,58 L1368,61 L1368,64 L1360.5,64 L1353,64 L1353,71 L1353,78 L1348,78 L1343,78 L1343,71 Z" id="Shape"></path>
                <path d="M609,42 L609,18 L613.9,18 L618.9,18 L619.2,32.9 C619.5,46.2 619.7,48.2 621.6,50.7 C623.8,53.7 628.7,56.6 633.3,57.5 C635.7,58 636,58.5 636,62.1 L636,66.3 L631,65.8 C627.7,65.5 624.9,64.4 622.5,62.6 L619,59.9 L619,62.9 C619,65.9 618.9,66 614,66 L609,66 L609,42 Z" id="Shape"></path>
                <path d="M650.9,63.2 C643.2,59.2 639.6,53.2 639.2,43.4 C638.8,37.3 639.2,35.3 641.3,30.7 C645.4,21.7 652.2,18 664.4,18 C672.3,18 678,20.1 681.8,24.2 L684,26.6 L681.5,29 L678.9,31.4 L674.1,28.7 C665.2,23.8 655.6,25.7 651,33.2 C647.5,39 647.3,38.9 667.8,39.2 L686.5,39.5 L686.2,44.5 C685.8,51.5 684.3,55.6 680.7,59.7 C676.4,64.5 672.5,66 663.6,66 C657.5,66 655.3,65.5 650.9,63.2 Z M671.4,56.1 C674.6,54 676.9,50.5 677,47.8 C677,46.2 675.7,46 663,46 C653.9,46 649,46.4 649,47 C649,49.5 652.3,54.2 655.3,56 C659.6,58.6 667.5,58.7 671.4,56.1 Z" id="Shape"></path>
                <path d="M696,42 L696,18 L700.9,18 L705.8,18 L706.2,32.8 C706.6,49.2 707.7,52.6 713.3,56 C717.2,58.4 723.7,58.6 726.9,56.4 C731.1,53.4 732,49.3 732,33 L732,18 L737,18 L742,18 L742,32.2 C742,44.6 742.3,46.9 744.1,50.7 C747.9,58.5 757.1,60.6 763.2,55.1 L766.5,52.2 L766.8,35.1 L767.1,18 L772.1,18 L777.1,18 L776.8,36.9 C776.5,54.3 776.3,56.1 774.4,58.7 C770.4,64.1 766.4,66 758.8,66 C750.8,66 746.4,64.4 742.9,60.3 L740.4,57.3 L738.6,59.8 C735.1,64.3 731.1,66 723.2,66 C715.5,66 709.1,63.7 707.1,60.3 C706.3,58.8 706.1,59.2 706,62.3 L706,66 L701,66 L696,66 L696,42 Z" id="Shape"></path>
                <polygon id="Shape" points="791 42 791 18 796 18 801 18 801 42 801 66 796 66 791 66"></polygon>
                <path d="M814,47.8 C814,30.7 814.2,29.2 816.3,25.6 C819.4,20.2 823.9,18 832.2,18 C839.6,18 843.4,19.1 846.8,22.2 L849,24.3 L849,21.2 C849,18 849.1,18 854,18 L859,18 L859,42 L859,66 L854,66 L849,66 L849,52 C849,36.3 848.2,33 843.1,28.7 C838.2,24.6 831.9,24.9 827.4,29.4 L824,32.8 L824,49.4 L824,66 L819,66 L814,66 L814,47.8 Z" id="Shape"></path>
                <path d="M874,42 L874,18 L879,18 L884,18 L884,32 C884,47.7 884.8,51 889.9,55.3 C894.8,59.4 901.1,59.1 905.6,54.6 L909,51.2 L909,34.6 L909,18 L914,18 L919,18 L919,30.8 C919,45.8 920,50.2 924.5,54.7 C927.1,57.3 928.6,58 931.9,58 C937,58 940.5,56.4 942.7,53.1 C944.2,50.9 944.6,47.8 944.8,34.3 L945.2,18 L950.2,18 L955.2,18 L954.8,35.8 C954.5,51.1 954.2,54 952.5,57.4 C949.3,63.7 946.1,65.4 937.1,65.8 C928.6,66.2 922.7,64.2 919.6,59.9 L918.1,57.7 L915.2,60.8 C911.3,64.9 908.3,66 900.5,66 C893.4,66 889.6,64.9 886.3,61.8 L884,59.7 L884,62.8 C884,66 883.9,66 879,66 L874,66 L874,42 Z" id="Shape"></path>
                <path d="M1062,47.8 C1062,30.7 1062.2,29.2 1064.3,25.6 C1067.4,20.2 1071.9,18 1080.2,18 C1087.6,18 1091.4,19.1 1094.8,22.2 L1097,24.3 L1097,21.2 C1097,18 1097.1,18 1102,18 L1107,18 L1107,42 L1107,66 L1102,66 L1097,66 L1097,52 C1097,36.3 1096.2,33 1091.1,28.7 C1086.2,24.6 1079.9,24.9 1075.4,29.4 L1072,32.8 L1072,49.4 L1072,66 L1067,66 L1062,66 L1062,47.8 Z" id="Shape"></path>
                <path d="M1186.1,64.3 C1179.7,61.1 1177.2,53.3 1180.5,47 C1182.2,43.6 1186.4,41.3 1196.3,38.1 C1204.9,35.2 1207,32 1203,28 C1200.1,25.1 1192.9,25.4 1186.2,28.5 C1183.2,29.9 1180.5,31 1180,31 C1178.8,31 1176.7,25.2 1177.5,24 C1177.9,23.3 1180.6,21.7 1183.4,20.4 C1187.3,18.6 1190.2,18 1196,18 C1208.5,18 1214.6,22.7 1214.4,32.2 C1214.4,36.7 1213.9,37.7 1210.8,40.6 C1208.5,42.7 1204.7,44.6 1200.3,45.9 C1191.9,48.4 1189,50.4 1189,53.5 C1189,58.2 1197.1,59.5 1204.9,56 C1207.3,54.9 1209.5,54 1209.9,54 C1210.6,54 1213,59.8 1213,61.4 C1213,61.8 1211.1,63 1208.8,64 C1203.2,66.5 1191,66.7 1186.1,64.3 Z" id="Shape"></path>
                <path d="M1225,33 L1225,0 L1230,0 L1235,0 L1235,12.2 C1235,23.6 1235.1,24.2 1236.8,22.8 C1240.6,19.4 1245,18 1251.7,18 C1266.7,18.1 1275,26.9 1275,42.6 C1275,49.2 1271.9,57 1267.9,60.7 C1260.3,67.7 1244.4,68 1236.8,61.2 C1235.1,59.8 1235,59.9 1235,62.8 C1235,66 1234.9,66 1230,66 L1225,66 L1225,33 Z M1257.7,56 C1261.7,53.6 1265,47.3 1265,42 C1265,39.8 1264.1,36.1 1263,33.9 C1257.5,23.3 1242.1,23.3 1236.8,34 C1233,41.4 1235.4,51.4 1241.9,55.7 C1246.2,58.6 1253.2,58.8 1257.7,56 Z" id="Shape"></path>
                <path d="M1292.9,63.2 C1289,61.2 1286.7,59.1 1284.5,55.5 C1281.8,51.1 1281.5,49.9 1281.5,42 C1281.5,34.1 1281.8,32.9 1284.5,28.5 C1289,21.3 1295.7,18 1306,18 C1316.3,18 1323,21.3 1327.5,28.5 C1330.2,32.9 1330.5,34.1 1330.5,42 C1330.5,49.9 1330.2,51.1 1327.5,55.5 C1323,62.7 1316.3,66 1306,66 C1299.4,66 1297.4,65.6 1292.9,63.2 Z M1314.1,55.7 C1326.8,47.2 1321.1,26 1306,26 C1297.3,26 1291,32.7 1291,42 C1291,51.3 1297.3,58 1306,58 C1309.2,58 1311.8,57.3 1314.1,55.7 Z" id="Shape"></path>
                <path d="M1516,64.4 C1511.4,62.4 1507.3,58.5 1504.7,53.5 C1503.1,50.5 1502.6,47.7 1502.6,42 C1502.6,26.5 1511.4,18 1527.2,18 C1534.9,18 1542.9,20.8 1545.9,24.4 C1547.2,25.9 1547,26.4 1544.7,28.8 C1542.2,31.2 1541.8,31.3 1539.7,30.1 C1534.6,26.8 1532.3,26 1528,26 C1521.8,26 1517,28.8 1514.2,34.1 L1511.9,38.5 L1531,38.8 L1550,39 L1550,43.3 C1550,52.8 1546,60.2 1539,63.8 C1533.6,66.5 1521.6,66.8 1516,64.4 Z M1534.8,56 C1537.9,54.1 1542,47.6 1540.8,46.5 C1540.5,46.2 1533.9,46.1 1526.1,46.2 L1512,46.5 L1513.8,50 C1517.5,57.5 1527.6,60.4 1534.8,56 Z" id="Shape"></path>
                <path d="M1560,42 L1560,18 L1565,18 L1570,18 L1570,32 C1570,47.7 1570.8,51 1575.9,55.3 C1580.8,59.4 1587.1,59.1 1591.6,54.6 L1595,51.2 L1595,34.6 L1595,18 L1600,18 L1605,18 L1605,30.8 C1605,45.8 1606,50.2 1610.5,54.7 C1613.1,57.3 1614.6,58 1617.9,58 C1623,58 1626.5,56.4 1628.7,53.1 C1630.2,50.9 1630.6,47.8 1630.8,34.3 L1631.2,18 L1636.2,18 L1641.2,18 L1640.8,35.8 C1640.5,51.1 1640.2,54 1638.5,57.4 C1635.3,63.7 1632.1,65.4 1623.1,65.8 C1614.6,66.2 1608.7,64.2 1605.6,59.9 L1604.1,57.7 L1601.2,60.8 C1597.3,64.9 1594.3,66 1586.5,66 C1579.4,66 1575.6,64.9 1572.3,61.8 L1570,59.7 L1570,62.8 C1570,66 1569.9,66 1565,66 L1560,66 L1560,42 Z" id="Shape"></path>
                <path d="M1663.5,64.6 C1658.6,62.5 1654.4,58.3 1652,53.3 C1650.2,49.4 1649.9,47.3 1650.2,40.5 C1650.4,33.6 1650.9,31.7 1653.3,28.2 C1657.7,21.4 1663,18.6 1671.7,18.1 C1680.8,17.7 1686.8,19.3 1691.6,23.4 L1695.2,26.5 L1692.6,28.9 L1690,31.3 L1684.7,28.7 C1675.4,24 1666.6,25.7 1662,33.2 C1658.4,39.1 1658.3,39 1678.5,39 L1697,39 L1697,43.8 C1697,53.8 1693.1,60.7 1685.5,64.1 C1680.7,66.3 1668.1,66.6 1663.5,64.6 Z M1684.6,53.7 C1686.5,51.7 1688,49.1 1688,48 C1688,46.1 1687.4,46 1674,46 C1664.9,46 1660,46.4 1660,47 C1660,49.5 1663.3,54.2 1666.3,56.1 C1668.8,57.7 1670.8,58 1675.4,57.7 C1680.7,57.4 1681.6,57 1684.6,53.7 Z" id="Shape"></path>
            </g>
        </g>
    </g>
</svg>